#tb 0: 1/15
#media_type 0: video
#codec_id 0: rawvideo
#dimensions 0: 320x240
#sar 0: 0/1
0,          0,          0,        1,   230400, 0x135cb509
0,          1,          1,        1,   230400, 0x919a1ab7
0,          2,          2,        1,   230400, 0x0af8722b
0,          3,          3,        1,   230400, 0xc9616809
0,          4,          4,        1,   230400, 0xe16ecaf7
0,          5,          5,        1,   230400, 0xa86f8d1b
0,          6,          6,        1,   230400, 0xd351b5a4
0,          7,          7,        1,   230400, 0xd112b5b7
0,          8,          8,        1,   230400, 0xc9c3c9b1
0,          9,          9,        1,   230400, 0x4f91e572
0,         10,         10,        1,   230400, 0xb1d8c4d3
0,         11,         11,        1,   230400, 0x34de10c1
0,         12,         12,        1,   230400, 0xbd4f3b29
0,         13,         13,        1,   230400, 0xfeaf1477
0,         14,         14,        1,   230400, 0x718ffa17
0,         15,         15,        1,   230400, 0x23b46ef3
0,         16,         16,        1,   230400, 0x6346d9b8
0,         17,         17,        1,   230400, 0xdb66bf57
0,         18,         18,        1,   230400, 0xeb74a2ff
0,         19,         19,        1,   230400, 0xe0750470
0,         20,         20,        1,   230400, 0x645eb109
0,         21,         21,        1,   230400, 0xbb96489a
0,         22,         22,        1,   230400, 0x58a70e35
0,         23,         23,        1,   230400, 0xc7563441
0,         24,         24,        1,   230400, 0x6098f07e
0,         25,         25,        1,   230400, 0x579ece15
0,         26,         26,        1,   230400, 0xe1ca8d03
0,         27,         27,        1,   230400, 0x8928cf34
0,         28,         28,        1,   230400, 0xf621620e
0,         29,         29,        1,   230400, 0x98a344ea
